<?xml version="1.0" encoding="UTF-8" standalone="no"?>
<svg
   width="1024"
   height="1024"
   viewBox="0 0 1024 1024"
   version="1.1"
   id="svg24"
   sodipodi:docname="graphviz-code-viewer(1).svg"
   inkscape:version="1.4.2 (1:1.4.2+202505120738+ebf0e940d0)"
   xmlns:inkscape="http://www.inkscape.org/namespaces/inkscape"
   xmlns:sodipodi="http://sodipodi.sourceforge.net/DTD/sodipodi-0.dtd"
   xmlns="http://www.w3.org/2000/svg"
   xmlns:svg="http://www.w3.org/2000/svg">
  <defs
     id="defs24" />
  <sodipodi:namedview
     id="namedview24"
     pagecolor="#ffffff"
     bordercolor="#666666"
     borderopacity="1.0"
     inkscape:showpageshadow="2"
     inkscape:pageopacity="0.0"
     inkscape:pagecheckerboard="0"
     inkscape:deskcolor="#d1d1d1"
     inkscape:zoom="0.78808594"
     inkscape:cx="512"
     inkscape:cy="645.2342"
     inkscape:window-width="1860"
     inkscape:window-height="1016"
     inkscape:window-x="60"
     inkscape:window-y="27"
     inkscape:window-maximized="1"
     inkscape:current-layer="svg24" />
  <g
     id="g24"
     transform="translate(-2.7980318,-3.3364171e-5)">
    <path
       fill="#606c38"
       d="m 732.77933,0.00110152 c 6.66834,0.9305729 75.75727,74.45741448 84.5872,83.49191448 L 919.57978,186.46174 c 6.46064,6.45098 16.54648,13.75934 20.69335,21.92751 -5.06465,0.80426 -11.02534,0.0772 -16.1866,0.0556 l -103.56576,-0.0411 c -33.51318,0.0725 -78.1628,4.76517 -86.41068,-40.40613 -2.02151,-11.07123 -1.35492,-23.00227 -1.33559,-34.23677 L 732.7624,30.702286 c -0.0121,-10.174229 -0.53376,-20.551822 0.0169,-30.70117448 z"
       id="path1"
       style="stroke-width:2.41519" />
    <path
       fill="#fefae0"
       d="m 732.77933,1023.5642 c -7.35426,0.9443 -15.5659,0.063 -23.01918,0.044 l -519.41318,-0.011 c -39.22751,0.022 -91.400206,1.6641 -99.046695,-51.45079 -1.937224,-13.45744 -1.08949,-27.95099 -1.076928,-41.52919 l -0.0022,-801.67788 C 90.217899,99.258046 84.274973,49.927784 103.00502,25.427854 124.88205,-3.1882806 160.28222,0.6178179 192.12166,0.67481577 l 492.39686,0.0101327 c 15.04181,0.009697 32.70409,1.44428253 47.44399,-0.56636249 L 732.77885,0 c -0.55066,10.149353 -0.029,20.526947 -0.0169,30.701176 l 0.0121,103.058564 c -0.0193,11.2345 -0.68591,23.16554 1.3356,34.23677 8.24788,45.1713 52.89749,40.47858 86.41067,40.40613 l 103.56576,0.0411 c 5.16126,0.0217 11.12195,0.74871 16.1866,-0.0556 -0.90327,25.13005 0,50.6248 0,75.79108 v 527.08624 c -35.47914,-0.826 -71.1853,-0.002 -106.68619,-0.0121 l -35.09754,-0.0169 c -40.71526,-0.0483 -65.05555,8.66329 -65.70765,54.57847 -0.47821,33.51076 0.01,67.09397 -0.0169,100.61198 l -0.029,38.26869 c -0.004,6.224 -0.38643,12.6749 0.0435,18.8675 z M 298.54024,137.01025 C 298.81316,81.600714 288.5486,92.190589 237.75957,92.163547 l -36.90169,0.0054 c -41.72482,0.03955 -35.85832,9.521163 -35.85349,49.795173 0.002,19.63066 -0.61105,39.52459 0.18355,59.12385 1.10374,27.25301 25.69521,22.0845 46.03594,22.17386 v 99.24016 c -9.56174,-0.0508 -19.67414,-0.75837 -29.16825,0 -24.7871,4.36907 -17.01018,43.6763 -17.01743,62.6621 l -0.004,36.52734 c 0.0242,42.55082 8.82994,36.56114 46.1905,36.9041 0.41058,34.37782 -0.004,68.80634 0,103.19141 -6.3761,-0.0893 -12.7691,-0.28258 -19.14038,0 -16.60201,-0.68592 -26.40768,4.54297 -27.0477,22.33326 -0.65936,18.3651 -0.01,37.01761 0,55.40929 0.01,22.13764 -7.87352,57.30763 22.36706,57.79791 7.92425,0.46613 15.88713,0.16424 23.82102,0 v 107.54117 c -52.60283,-0.35504 -46.17118,3.70007 -46.19775,50.42675 -0.01,18.56798 -0.3502,37.21083 0.0701,55.76915 0.77527,34.31261 33.931,24.93683 59.59239,24.94892 l 36.86788,0.004 c 14.79786,0.004 33.8513,3.20013 36.9838,-16.58028 1.31869,-6.43165 0.0121,-25.46093 0,-33.22817 h 308.62989 c 1.21726,-12.71598 0.48787,-29.6199 0,-42.38901 H 298.54024 c 0.12076,-2.69776 0.0893,-5.35689 0,-8.05224 0.78252,-37.09732 -13.7545,-31.00139 -46.41995,-30.89994 V 697.32698 c 45.87653,-0.16906 46.75807,2.5601 46.41995,-44.92737 37.57311,0.39127 75.25008,0.26809 112.82318,0 0.12319,13.60477 -5.56459,39.78302 14.8969,41.41327 24.97548,1.9877 76.43593,2.16402 101.52734,0.23428 10.19211,-0.78495 13.74002,-5.18059 14.17234,-15.57074 0.97815,-23.48289 3.04797,-81.51991 -0.31639,-104.07536 -2.06016,-13.80281 -20.89381,-10.05444 -30.71639,-10.04961 l -43.16911,0.004 c -53.3443,-0.0338 -56.7473,-9.81774 -56.39469,47.76281 H 298.54024 c 0.19563,-44.49022 4.59853,-50.88323 -41.43741,-50.33257 -9.79843,-0.39609 -5.02118,-24.27507 -5.01635,-34.28604 l 0.0338,-68.90536 c 42.15232,0.2077 46.46585,1.60368 46.41996,-42.12576 h 208.90428 c 11.19682,13.12898 23.60364,29.36388 36.8727,40.44961 -10.66065,25.40538 7.28663,55.06634 36.1892,54.17996 50.98949,-1.56504 52.25023,-80.90404 -6.21911,-76.88516 -10.14862,-11.29101 -20.36488,-22.80664 -29.97009,-34.55895 20.03642,-20.32142 41.74897,-48.47528 61.66946,-66.65441 33.61945,50.35187 66.73894,103.1117 98.92135,154.60838 20.17891,32.28626 28.49442,35.48156 51.10301,0.16423 L 859.80622,324.68443 c 7.24073,-11.41901 25.81355,-36.46696 0.3019,-43.82604 -7.7576,-2.23888 -25.47544,-0.92501 -34.45027,-0.92743 H 659.46624 c -20.82136,0.002 -64.2972,-8.62706 -70.27237,15.33404 l -0.66901,2.68087 c -7.23591,0.49994 -69.55506,70.55494 -75.71138,78.05652 H 298.54024 c 0.0483,-50.72382 4.18069,-53.82492 -46.41995,-53.50129 v -99.24015 c 44.1545,-0.002 46.8257,1.88867 46.41995,-43.7246 h 112.82318 c -0.11592,36.15539 -2.51179,44.05548 36.38243,43.79463 L 480.9692,223.174 c 18.81192,-0.0338 60.65992,8.78888 61.33859,-18.34578 0.52168,-20.85034 -0.12801,-41.8794 -0.099,-62.75147 0.029,-21.80651 6.88087,-49.787209 -24.46587,-49.878501 l -61.29995,-0.03454 c -42.59428,0.02975 -45.4587,-3.94787 -45.07952,44.845491 -37.59001,0.38329 -75.22833,0.0763 -112.82318,0 z M 607.17013,539.0988 v 39.96657 l 129.87925,0.0121 c 21.15224,0.004 42.74163,0.94192 63.83347,-0.0121 V 539.0988 Z m 0,73.02086 v 40.28053 h 258.79003 v -40.28053 z m 101.25201,75.29837 H 607.17013 v 39.51252 h 24.88853 l 66.98288,0.0217 c 11.19199,0.008 22.56995,0.49511 33.73779,-0.0217 v -39.51252 c -8.11987,-0.10862 -16.23732,-0.0435 -24.35719,0 z"
       id="path2"
       style="stroke-width:2.41519" />
    <path
       fill="#283618"
       d="m 211.22388,223.26199 c -20.34073,-0.0893 -44.9322,5.07915 -46.03594,-22.17386 -0.7946,-19.59926 -0.18114,-39.49319 -0.18355,-59.12385 -0.004,-40.27401 -5.87133,-49.755572 35.85349,-49.795176 l 36.90169,-0.0054 c 50.78903,0.02702 61.05359,-10.562833 60.78067,44.846706 v 42.52714 c 0.40575,45.61328 -2.26545,43.72218 -46.41995,43.7246 z"
       id="path3"
       style="stroke-width:2.41519" />
    <path
       fill="#283618"
       d="m 411.36342,137.01025 c -0.37918,-48.793365 2.48524,-44.815793 45.07953,-44.845494 l 61.29994,0.03454 c 31.34674,0.0913 24.49485,28.071984 24.46587,49.878504 -0.029,20.87206 0.62071,41.90112 0.099,62.75146 -0.67867,27.13466 -42.52667,18.31197 -61.33859,18.34579 l -33.22335,0.15698 c -38.89421,0.26084 -36.49835,-7.63925 -36.38243,-43.79464 z"
       id="path4"
       style="stroke-width:2.41519" />
    <path
       fill="#e87f1e"
       d="m 298.54024,137.01025 c 37.59485,0.0763 75.23317,0.38328 112.82318,0 v 42.52714 H 298.54024 Z"
       id="path5"
       style="stroke-width:2.41519" />
    <path
       fill="#e87f1e"
       d="m 211.22388,223.26199 h 40.89641 v 99.24016 h -70.06466 c 9.49411,-0.75837 19.60651,-0.0508 29.16825,0 z"
       id="path6"
       style="stroke-width:2.41519" />
    <path
       fill="#283618"
       d="m 588.52486,297.94691 0.66901,-2.68086 c 5.97517,-23.9611 49.45101,-15.33162 70.27237,-15.33404 h 166.19164 c 8.97484,0.002 26.69267,-1.31145 34.45027,0.92743 25.51165,7.35908 6.93884,32.40702 -0.3019,43.82603 L 756.01104,487.7736 c -22.60859,35.31732 -30.92409,32.12202 -51.10301,-0.16424 -32.18241,-51.49668 -65.3019,-104.25651 -98.92134,-154.60838 -5.48248,-10.07859 -18.4424,-22.86943 -17.46183,-35.05407 z m 95.41691,13.53714 c -15.29057,0.12317 -27.56215,12.65801 -27.36168,27.94858 0.20287,15.28815 12.80292,27.49694 28.08865,27.21678 15.17706,-0.28016 27.27716,-12.7667 27.0767,-27.94617 -0.20046,-15.17705 -12.62419,-27.34236 -27.80367,-27.21919 z m 88.15686,0.0677 c -14.90415,2.35239 -25.13972,16.26631 -22.94915,31.197 2.193,14.93071 15.9934,25.31362 30.94825,23.28244 9.81534,-1.33318 18.15982,-7.8373 21.84781,-17.03192 3.688,-9.19704 2.15194,-19.66448 -4.0237,-27.40999 -6.17564,-7.74793 -16.03687,-11.58084 -25.82321,-10.03753 z m -44.80178,71.27709 c -9.87571,1.51915 -18.16223,8.24062 -21.68357,17.58982 -3.52136,9.34921 -1.72928,19.86978 4.68788,27.52351 6.41957,7.65615 16.46676,11.25478 26.28451,9.41924 14.84617,-2.77746 24.71947,-16.9498 22.18351,-31.83704 -2.53594,-14.88964 -16.54646,-24.99238 -31.47233,-22.69553 z"
       id="path7"
       style="stroke-width:2.41519" />
    <path
       fill="#ada24a"
       d="m 512.81348,376.00344 c 6.15632,-7.50158 68.47547,-77.55658 75.71138,-78.05653 -0.98057,12.18464 11.97935,24.97548 17.46183,35.05407 -19.92049,18.17913 -41.63305,46.333 -61.66946,66.65441 9.60521,11.75231 19.82146,23.26794 29.97008,34.55896 -12.73288,2.97792 -25.48025,9.62212 -29.97008,22.70519 -13.26906,-11.08572 -25.67589,-27.32062 -36.87271,-40.4496 H 298.54024 v -40.4665 z"
       id="path8"
       style="stroke-width:2.41519" />
    <path
       fill="#e87f1e"
       d="m 684.66874,366.64941 c -15.28573,0.28016 -27.88578,-11.92863 -28.08865,-27.21678 -0.20047,-15.29057 12.07111,-27.82541 27.36168,-27.94858 15.17948,-0.12317 27.60321,12.04214 27.80367,27.21919 0.20046,15.17947 -11.89964,27.66601 -27.0767,27.94617 z"
       id="path9"
       style="stroke-width:2.41519" />
    <path
       fill="#e87f1e"
       d="m 780.09773,366.03112 c -14.95485,2.03118 -28.75525,-8.35173 -30.94825,-23.28244 -2.19057,-14.9307 8.045,-28.84461 22.94915,-31.197 9.78634,-1.54331 19.64757,2.2896 25.82321,10.03753 6.17564,7.74551 7.7117,18.21295 4.0237,27.40998 -3.68799,9.19463 -12.03247,15.69875 -21.84781,17.03193 z"
       id="path10"
       style="stroke-width:2.41519" />
    <path
       fill="#283618"
       d="m 182.05563,322.50215 h 70.06466 c 50.60064,-0.32364 46.46826,2.77747 46.41995,53.50129 v 40.4665 c 0.0459,43.72944 -4.26764,42.33346 -46.41995,42.12575 h -40.89641 c -37.36057,-0.34296 -46.16636,5.64672 -46.19051,-36.90411 l 0.004,-36.52733 c 0.008,-18.9858 -7.76968,-58.29303 17.01742,-62.6621 z"
       id="path11"
       style="stroke-width:2.41519" />
    <path
       fill="#e87f1e"
       d="m 736.58567,437.36133 c -9.81775,1.83555 -19.86494,-1.76308 -26.28451,-9.41923 -6.41716,-7.65374 -8.20924,-18.17431 -4.68788,-27.52351 3.52134,-9.3492 11.80786,-16.07068 21.68357,-17.58982 14.92587,-2.29685 28.93639,7.80589 31.47233,22.69553 2.53596,14.88723 -7.33734,29.05957 -22.18351,31.83703 z"
       id="path12"
       style="stroke-width:2.41519" />
    <path
       fill="#933705"
       d="m 574.28731,434.21435 c 58.46934,-4.01888 57.20861,75.32011 6.21912,76.88515 -28.90258,0.88638 -46.84986,-28.77457 -36.1892,-54.17996 4.48983,-13.08307 17.2372,-19.72727 29.97008,-22.70519 z"
       id="path13"
       style="stroke-width:2.41519" />
    <path
       fill="#e87f1e"
       d="m 211.22388,458.59569 h 40.89641 l -0.0338,68.90537 c -0.004,10.01096 -4.78207,33.88995 5.01635,34.28603 -21.6715,-0.13283 -43.35024,0.26326 -65.01934,0 6.37128,-0.28257 12.76428,-0.0893 19.14039,0 -0.004,-34.38506 0.41058,-68.81358 0,-103.1914 z"
       id="path14"
       style="stroke-width:2.41519" />
    <path
       fill="#e87f1e"
       d="M 607.17013,579.06537 V 539.0988 h 193.71272 v 39.96657 c -21.09184,0.95399 -42.68123,0.0169 -63.83347,0.0121 z"
       id="path15"
       style="stroke-width:2.41519" />
    <path
       fill="#283618"
       d="m 187.40286,697.32756 c -30.24059,-0.49028 -22.35741,-35.66028 -22.36707,-57.79791 -0.01,-18.39168 -0.65936,-37.04419 0,-55.40929 0.64002,-17.79029 10.44569,-23.01918 27.0477,-22.33327 21.66909,0.26326 43.34784,-0.13283 65.01934,0 46.03594,-0.55066 41.63304,5.84236 41.43741,50.33257 v 40.28053 c 0.33812,47.48747 -0.54342,44.75831 -46.41995,44.92737 -21.48311,-0.68592 -43.21016,-0.002 -64.71743,0 z"
       id="path16"
       style="stroke-width:2.41519" />
    <path
       fill="#283618"
       d="m 411.36342,612.11966 c -0.35261,-57.58055 3.05039,-47.79661 56.39469,-47.7628 l 43.16911,-0.004 c 9.82258,-0.004 28.65623,-3.7532 30.71639,10.04961 3.36436,22.55545 1.29454,80.59247 0.31639,104.07536 -0.43232,10.39014 -3.98023,14.78579 -14.17234,15.57073 -25.09141,1.92974 -76.55186,1.75342 -101.52734,-0.23428 -20.46149,-1.63025 -14.77371,-27.80849 -14.8969,-41.41326 z"
       id="path17"
       style="stroke-width:2.41519" />
    <path
       fill="#e87f1e"
       d="m 298.54024,612.11966 h 112.82318 v 40.28053 c -37.5731,0.26809 -75.25007,0.39126 -112.82318,0 z"
       id="path18"
       style="stroke-width:2.41519" />
    <path
       fill="#e87f1e"
       d="m 607.17013,652.40019 v -40.28053 h 258.79003 v 40.28053 z"
       id="path19"
       style="stroke-width:2.41519" />
    <path
       fill="#e87f1e"
       d="m 607.17013,687.41803 h 101.25201 c 8.11987,-0.0435 16.23732,-0.10862 24.35719,0 v 39.51252 c -11.16784,0.51684 -22.5458,0.029 -33.73779,0.0217 l -66.98288,-0.0217 h -24.88853 z"
       id="path20"
       style="stroke-width:2.41519" />
    <path
       fill="#e87f1e"
       d="m 187.40286,697.32756 c 21.50727,-0.002 43.23432,-0.68592 64.71743,0 V 804.86873 H 211.22388 V 697.32756 c -7.9339,0.16423 -15.89678,0.46613 -23.82102,0 z"
       id="path21"
       style="stroke-width:2.41519" />
    <path
       fill="#283618"
       d="m 298.54024,919.43809 c -3.1325,19.78041 -22.18594,16.58511 -36.9838,16.58028 l -36.86788,-0.004 c -25.66139,-0.0121 -58.81712,9.3637 -59.59239,-24.94891 -0.42025,-18.55832 -0.0798,-37.20117 -0.0701,-55.76916 0.0266,-46.72668 -6.40508,-50.78178 46.19775,-50.42674 h 40.89641 c 32.66546,-0.10144 47.20248,-6.19738 46.41996,30.89994 l 0.008,53.8539 c -0.01,9.87571 -0.46129,19.95913 -0.008,29.81552 z"
       id="path22"
       style="stroke-width:2.41519" />
    <path
       fill="#606c38"
       d="m 732.77933,1023.5642 c -0.4299,-6.1926 -0.0483,-12.6435 -0.0435,-18.8675 l 0.029,-38.26867 c 0.0266,-33.51801 -0.4613,-67.10122 0.0169,-100.61199 0.6521,-45.91517 24.99239,-54.62676 65.70766,-54.57846 l 35.09754,0.0169 c 35.50088,0.01 71.20705,-0.81391 106.68619,0.0121 -0.6521,4.98494 -27.73846,29.56675 -32.69202,34.63865 L 759.14113,996.65172 c -8.73333,8.97478 -17.16235,18.42068 -26.3618,26.91248 z"
       id="path23"
       style="stroke-width:2.41519" />
    <path
       fill="#ada24a"
       d="m 298.54024,835.76867 c 0.0893,2.69535 0.12076,5.35448 0,8.05224 h 308.62989 c 0.48787,12.76911 1.21726,29.67302 0,42.389 H 298.54024 c 0.0121,7.76725 1.31869,26.79653 0,33.22818 -0.45405,-9.85639 -0.002,-19.93981 0.008,-29.81552 z"
       id="path24"
       style="stroke-width:2.41519" />
  </g>
</svg>
